<svg width="509" height="282" viewBox="0 0 509 282" fill="none" xmlns="http://www.w3.org/2000/svg">
<g clip-path="url(#clip0)">
<path d="M277.75 175.111C258.918 250.648 182.412 296.618 106.867 277.781C31.3525 258.949 -14.6179 182.439 4.22322 106.907C23.0467 31.3619 99.5524 -14.6129 175.076 4.21941C250.616 23.0517 296.582 99.5707 277.75 175.111Z" fill="#F7931A"/>
<path d="M203.152 120.915C205.959 102.153 191.674 92.0668 172.141 85.3385L178.477 59.9232L163.007 56.0677L156.838 80.8132C152.771 79.7998 148.594 78.8436 144.443 77.8963L150.656 52.9878L135.195 49.1323L128.854 74.5387C125.488 73.772 122.183 73.0142 118.975 72.2166L118.993 72.1373L97.6578 66.8102L93.5424 83.3336C93.5424 83.3336 105.021 85.9641 104.778 86.1272C111.044 87.6914 112.176 91.8377 111.987 95.1247L104.77 124.078C105.201 124.188 105.761 124.347 106.378 124.594C105.862 124.466 105.311 124.325 104.743 124.188L94.6263 164.748C93.8597 166.651 91.9165 169.507 87.5367 168.423C87.6909 168.647 76.2919 165.616 76.2919 165.616L68.6118 183.325L88.744 188.343C92.4893 189.282 96.1597 190.264 99.7728 191.19L93.3706 216.896L108.823 220.751L115.164 195.318C119.385 196.464 123.483 197.522 127.493 198.517L121.174 223.831L136.644 227.687L143.047 202.029C169.427 207.021 189.264 205.008 197.614 181.148C204.342 161.937 197.279 150.855 183.399 143.629C193.507 141.298 201.121 134.649 203.152 120.915V120.915ZM167.805 170.48C163.025 189.692 130.678 179.306 120.191 176.702L128.687 142.646C139.174 145.263 172.802 150.445 167.805 170.48ZM172.591 120.637C168.228 138.112 141.306 129.234 132.573 127.057L140.275 96.169C149.008 98.3457 177.133 102.408 172.591 120.637V120.637Z" fill="white"/>
<circle cx="367.983" cy="141.003" r="141" fill="#7B1AF7"/>
<path d="M306.761 144.047L400.761 63.0466C404.857 60.4235 408.761 63.0466 406.261 67.5466L376.261 126.547H429.761C429.761 126.547 438.261 126.547 429.761 133.547L337.261 215.047C330.761 220.547 326.261 217.547 330.761 209.047L359.761 151.547H306.761C306.761 151.547 298.261 151.547 306.761 144.047Z" fill="white"/>
</g>
<defs>
<clipPath id="clip0">
<rect width="509" height="282" fill="white"/>
</clipPath>
</defs>
</svg>
